# xmcd
# 
# Track frame offsets:
#     150
#     20028
#     37414
#     56324
#     75466
#     90185
#     108637
#     129048
#     146829
#     165453
#     184494
#     201933
#     219641
# 
# Disc length: 3160
# 
# Revision: 1
# Processed by: cddbd v1.5.2PL0 Copyright (c) Steve Scherf et al.
# Submitted via: fre:ac v1.0.17
# 
DISCID=b50c560d
DTITLE=My Tam - Tam 9
DYEAR=2017
DGENRE=
TTITLE0=Dung Hoi Em
TTITLE1=Co Ay La Ai
TTITLE2=Anh Chua Tung Biet
TTITLE3=Neu Co Buong Tay
TTITLE4=Dau The Ma
TTITLE5=Mong Cho Anh
TTITLE6=Lanh Lung
TTITLE7=Muon Mang La Tu Luc
TTITLE8=Biet Khi Nao Gap Lai
TTITLE9=Neu Anh Di
TTITLE10=Chuyen Buon
TTITLE11=Dau Chi Rieng Em
TTITLE12=Nguoi Hay Quen Em Di
EXTD=
EXTT0=
EXTT1=
EXTT2=
EXTT3=
EXTT4=
EXTT5=
EXTT6=
EXTT7=
EXTT8=
EXTT9=
EXTT10=
EXTT11=
EXTT12=
PLAYORDER=
